Coordinates
version=1
nRows=16
nColumns=30
inDegrees=yes

Units are S.I. units (second, meters, Newtons, ...)
Angles are in degrees.

endheader
time	floatyaw	floatroll	floatpitch	floatx	floaty	floatz	pro_sup_l	deviation_l	flexion_l	cmc_flexion_l	cmc_abduction_l	mp_flexion_l	ip_flexion_l	2mcp_flexion_l	2mcp_abduction_l	2pm_flexion_l	2md_flexion_l	3mcp_flexion_l	3mcp_abduction_l	3pm_flexion_l	3md_flexion_l	4mcp_flexion_l	4mcp_abduction_l	4pm_flexion_l	4md_flexion_l	5mcp_flexion_l	5mcp_abduction_l	5pm_flexion_l	5md_flexion_l
-0.995000	-160.147433	-5.066637	-73.570646	0.081661	-0.181173	-0.016854	99.385737	4.625179	0.629576	16.928951	10.278761	-25.408534	-42.716473	28.341161	6.616110	43.002975	29.141004	23.911212	4.029753	42.968435	28.016688	12.184996	-4.233940	51.392243	34.907016	0.140880	-7.849617	60.175723	41.505968
-0.985000	-160.147433	-5.066637	-73.570646	0.081438	-0.180970	-0.017000	99.352170	4.691671	0.554788	16.885986	10.354176	-25.389899	-42.648371	28.331480	6.619263	43.028741	29.167875	23.904904	4.026183	42.978604	28.034927	12.210597	-4.229779	51.364367	34.897288	0.149811	-7.859694	60.154035	41.497205
-0.975000	-160.147433	-5.066637	-73.570646	0.081199	-0.180750	-0.017147	99.329963	4.759225	0.468668	16.832772	10.444400	-25.384915	-42.586115	28.318294	6.623822	43.059774	29.203996	23.898189	4.018402	42.989323	28.056362	12.227695	-4.224357	51.326845	34.894388	0.158340	-7.872201	60.113844	41.492636
-0.965000	-160.147433	-5.066637	-73.570646	0.080944	-0.180522	-0.017295	99.321646	4.831571	0.369217	16.772372	10.553740	-25.384431	-42.527838	28.310630	6.627810	43.084570	29.237625	23.892952	4.009435	43.000047	28.077046	12.239295	-4.218901	51.283341	34.897749	0.170596	-7.885703	60.064944	41.493607
-0.955000	-160.147433	-5.066637	-73.570646	0.080670	-0.180290	-0.017441	99.331076	4.910225	0.255142	16.713927	10.684246	-25.374526	-42.461274	28.314295	6.629057	43.091755	29.258366	23.888070	4.001867	43.010456	28.094681	12.248849	-4.214923	51.238483	34.906169	0.190394	-7.895518	60.017313	41.499966
-0.945000	-160.147433	-5.066637	-73.570646	0.080376	-0.180060	-0.017584	99.363665	4.994061	0.129016	16.669081	10.833946	-25.342960	-42.372187	28.327189	6.625858	43.075074	29.261025	23.880031	3.997002	43.019670	28.108362	12.257455	-4.213404	51.197024	34.917916	0.218993	-7.896390	59.977562	41.509842
-0.935000	-160.147433	-5.066637	-73.570646	0.080059	-0.179831	-0.017726	99.425497	5.079643	-0.001307	16.647304	10.998169	-25.285757	-42.256396	28.337611	6.617317	43.036409	29.247057	23.863477	3.994519	43.025692	28.117614	12.261512	-4.214251	51.162205	34.930342	0.252892	-7.885355	59.946702	41.519701
-0.925000	-160.147433	-5.066637	-73.570646	0.079719	-0.179605	-0.017868	99.521329	5.162052	-0.124159	16.653070	11.172315	-25.209980	-42.127699	28.327645	6.603338	42.985563	29.223299	23.831716	3.992745	43.025705	28.121777	12.252538	-4.216402	51.134198	34.939682	0.283180	-7.863125	59.920682	41.525077
-0.915000	-160.147433	-5.066637	-73.570646	0.079356	-0.179387	-0.018012	99.652531	5.236186	-0.227635	16.686513	11.352728	-25.130438	-42.015130	28.280678	6.584604	42.936974	29.198911	23.777967	3.989501	43.017361	28.120307	12.219987	-4.218525	51.109986	34.941608	0.297573	-7.833340	59.893310	41.521621
-0.905000	-160.147433	-5.066637	-73.570646	0.078973	-0.179182	-0.018163	99.815967	5.298405	-0.303042	16.745915	11.534113	-25.062430	-41.950369	28.189172	6.562806	42.904732	29.182021	23.697918	3.983258	43.000294	28.113545	12.156156	-4.219866	51.085287	34.932563	0.284682	-7.800562	59.859702	41.505937
-0.895000	-160.147433	-5.066637	-73.570646	0.078576	-0.178999	-0.018321	100.003902	5.348165	-0.346258	16.828479	11.705839	-25.015741	-41.953630	28.058305	6.540942	42.898175	29.177632	23.593220	3.974096	42.976819	28.102990	12.061109	-4.220683	51.057795	34.911322	0.238565	-7.768735	59.818838	41.476394
-0.885000	-160.147433	-5.066637	-73.570646	0.078172	-0.178846	-0.018489	100.204244	5.388851	-0.356957	16.927667	11.851290	-24.993606	-42.026674	27.903837	6.523230	42.920360	29.187766	23.474736	3.963990	42.951669	28.090851	11.945812	-4.221976	51.029977	34.880105	0.161608	-7.741237	59.775084	41.434657
-0.875000	-160.147433	-5.066637	-73.570646	0.077770	-0.178723	-0.018663	100.400829	5.427020	-0.337249	17.029328	11.952080	-24.995605	-42.154858	27.746190	6.514404	42.969889	29.213371	23.363813	3.956201	42.931544	28.079565	11.832541	-4.224773	51.009833	34.844777	0.064779	-7.722028	59.738765	41.387861
-0.865000	-160.147433	-5.066637	-73.570646	0.077381	-0.178626	-0.018842	100.574633	5.469881	-0.291308	17.111005	11.995316	-25.020289	-42.313920	27.604449	6.518572	43.044177	29.256130	23.289693	3.954058	42.924737	28.072009	11.751766	-4.229523	51.009014	34.814100	-0.034661	-7.716254	59.724891	41.349769
-0.855000	-160.147433	-5.066637	-73.570646	0.077017	-0.178545	-0.019021	100.707082	5.522146	-0.225900	17.147118	11.980602	-25.064653	-42.476494	27.492779	6.537959	43.141291	29.318273	23.282076	3.959754	42.939991	28.072151	11.734892	-4.235961	51.038831	34.798267	-0.117292	-7.729042	59.748778	41.338792
-0.845000	-160.147433	-5.066637	-73.570646	0.076688	-0.178465	-0.019197	100.785117	5.584224	-0.150577	17.118671	11.923815	-25.121261	-42.616671	27.419622	6.571877	43.258874	29.400106	23.360294	3.973773	42.983918	28.085206	11.803908	-4.243323	51.105498	34.806932	-0.166122	-7.762823	59.818996	41.372438
